<svg version="1.1" xmlns="http://www.w3.org/2000/svg" xmlns:xlink="http://www.w3.org/1999/xlink" width="13.47436" height="13.53846" viewBox="0,0,13.47436,13.53846"><g transform="translate(-233.26282,-173.55462)"><g data-paper-data="{&quot;isPaintingLayer&quot;:true}" fill="none" fill-rule="nonzero" stroke="#ffffff" stroke-width="1" stroke-linecap="round" stroke-linejoin="miter" stroke-miterlimit="10" stroke-dasharray="" stroke-dashoffset="0" style="mix-blend-mode: normal"><path d="M240.03454,174.05462v12.53846"/><path d="M233.76282,180h12.47436"/><path d="M235.7687,175.88008l9.01172,8.71791"/><path d="M235.68112,184.52151l8.67334,-8.96565"/><path d="M238.88574,174.76901l1.2721,1.08756l1.08576,-1.12925"/><path d="M238.81432,185.74345l1.2721,-1.08756l1.08576,1.12925" data-paper-data="{&quot;index&quot;:null}"/><path d="M234.58838,178.8386l1.11418,1.24884l-1.10607,1.10937" data-paper-data="{&quot;index&quot;:null}"/><path d="M245.62302,181.26824l-1.10607,-1.10937l1.11418,-1.24884" data-paper-data="{&quot;index&quot;:null}"/><path d="M242.81432,175.2455l0.16716,1.66525l1.56519,-0.0652"/><path d="M235.17521,183.12506l1.67099,0.09375l0.00371,1.56655" data-paper-data="{&quot;index&quot;:null}"/><path d="M236.89587,175.21465l-0.05843,1.6726l-1.56612,0.0368" data-paper-data="{&quot;index&quot;:null}"/><path d="M243.18851,184.59916l-0.03213,-1.56622l1.66841,-0.13196" data-paper-data="{&quot;index&quot;:null}"/></g></g></svg>