<svg version="1.1" xmlns="http://www.w3.org/2000/svg" xmlns:xlink="http://www.w3.org/1999/xlink" width="551.39055" height="552.96851" viewBox="0,0,551.39055,552.96851"><defs><linearGradient x1="240" y1="-94.5" x2="240" y2="182.5" gradientUnits="userSpaceOnUse" id="color-1"><stop offset="0" stop-color="#fff065" stop-opacity="0"/><stop offset="1" stop-color="#fff065"/></linearGradient><linearGradient x1="334.60737" y1="-79.43477" x2="241.52704" y2="181.45803" gradientUnits="userSpaceOnUse" id="color-2"><stop offset="0" stop-color="#fff065" stop-opacity="0"/><stop offset="1" stop-color="#fff065"/></linearGradient><linearGradient x1="416.34252" y1="-32.85219" x2="241.01332" y2="181.59751" gradientUnits="userSpaceOnUse" id="color-3"><stop offset="0" stop-color="#fff065" stop-opacity="0"/><stop offset="1" stop-color="#fff065"/></linearGradient><linearGradient x1="480.05064" y1="38.69354" x2="242.85506" y2="181.75738" gradientUnits="userSpaceOnUse" id="color-4"><stop offset="0" stop-color="#fff065" stop-opacity="0"/><stop offset="1" stop-color="#fff065"/></linearGradient><linearGradient x1="512.4149" y1="136.00713" x2="239.03913" y2="180.66907" gradientUnits="userSpaceOnUse" id="color-5"><stop offset="0" stop-color="#fff065" stop-opacity="0"/><stop offset="1" stop-color="#fff065"/></linearGradient><linearGradient x1="512.80075" y1="231.80571" x2="240.31368" y2="182.00812" gradientUnits="userSpaceOnUse" id="color-6"><stop offset="0" stop-color="#fff065" stop-opacity="0"/><stop offset="1" stop-color="#fff065"/></linearGradient><linearGradient x1="480.00617" y1="319.98216" x2="240.0932" y2="181.52362" gradientUnits="userSpaceOnUse" id="color-7"><stop offset="0" stop-color="#fff065" stop-opacity="0"/><stop offset="1" stop-color="#fff065"/></linearGradient><linearGradient x1="419.66846" y1="394.39236" x2="240.23237" y2="183.36703" gradientUnits="userSpaceOnUse" id="color-8"><stop offset="0" stop-color="#fff065" stop-opacity="0"/><stop offset="1" stop-color="#fff065"/></linearGradient><linearGradient x1="324.40095" y1="443.81646" x2="241.12697" y2="179.63008" gradientUnits="userSpaceOnUse" id="color-9"><stop offset="0" stop-color="#fff065" stop-opacity="0"/><stop offset="1" stop-color="#fff065"/></linearGradient><linearGradient x1="229.64094" y1="457.88976" x2="239.98381" y2="181.08292" gradientUnits="userSpaceOnUse" id="color-10"><stop offset="0" stop-color="#fff065" stop-opacity="0"/><stop offset="1" stop-color="#fff065"/></linearGradient><linearGradient x1="137.68271" y1="438.03391" x2="240.43183" y2="180.79546" gradientUnits="userSpaceOnUse" id="color-11"><stop offset="0" stop-color="#fff065" stop-opacity="0"/><stop offset="1" stop-color="#fff065"/></linearGradient><linearGradient x1="55.41299" y1="388.95022" x2="238.62723" y2="181.19666" gradientUnits="userSpaceOnUse" id="color-12"><stop offset="0" stop-color="#fff065" stop-opacity="0"/><stop offset="1" stop-color="#fff065"/></linearGradient><linearGradient x1="-4.70935" y1="305.86782" x2="242.59382" y2="181.08745" gradientUnits="userSpaceOnUse" id="color-13"><stop offset="0" stop-color="#fff065" stop-opacity="0"/><stop offset="1" stop-color="#fff065"/></linearGradient><linearGradient x1="-33.8771" y1="214.61674" x2="240.97567" y2="180.1935" gradientUnits="userSpaceOnUse" id="color-14"><stop offset="0" stop-color="#fff065" stop-opacity="0"/><stop offset="1" stop-color="#fff065"/></linearGradient><linearGradient x1="-29.10787" y1="120.66024" x2="241.3316" y2="180.58931" gradientUnits="userSpaceOnUse" id="color-15"><stop offset="0" stop-color="#fff065" stop-opacity="0"/><stop offset="1" stop-color="#fff065"/></linearGradient><linearGradient x1="6.06891" y1="31.55294" x2="240.64469" y2="178.87301" gradientUnits="userSpaceOnUse" id="color-16"><stop offset="0" stop-color="#fff065" stop-opacity="0"/><stop offset="1" stop-color="#fff065"/></linearGradient><linearGradient x1="69.99447" y1="-34.51402" x2="239.52916" y2="184.5453" gradientUnits="userSpaceOnUse" id="color-17"><stop offset="0" stop-color="#fff065" stop-opacity="0"/><stop offset="1" stop-color="#fff065"/></linearGradient><linearGradient x1="154.03312" y1="-80.50338" x2="240.09906" y2="182.78668" gradientUnits="userSpaceOnUse" id="color-18"><stop offset="0" stop-color="#fff065" stop-opacity="0"/><stop offset="1" stop-color="#fff065"/></linearGradient></defs><g transform="translate(35.8033,94.5)"><g data-paper-data="{&quot;isPaintingLayer&quot;:true}" fill-rule="nonzero" stroke="#000000" stroke-width="0" stroke-linecap="butt" stroke-linejoin="miter" stroke-miterlimit="10" stroke-dasharray="" stroke-dashoffset="0" style="mix-blend-mode: normal"><path d="M240.1,182.5l-15.6,-277h31l-15.4,277.4z" fill="url(#color-1)"/><path d="M241.62122,181.49163l78.38746,-266.13487l29.19739,10.41693l-107.71926,256.09467z" fill="url(#color-2)"/><path d="M241.09074,181.6608l163.25188,-224.32383l23.99979,19.62168l-187.50485,205.01183z" fill="url(#color-3)"/><path d="M242.90671,181.84301l229.13855,-156.42214l16.01075,26.54536l-245.49182,130.08337z" fill="url(#color-4)"/><path d="M239.05525,180.76776l270.86051,-60.05782l4.99827,30.5944l-276.25355,29.52792z" fill="url(#color-5)"/><path d="M240.2957,182.10649l275.29155,34.45175l-5.57302,30.49494l-270.11201,-65.0186z" fill="url(#color-6)"/><path d="M240.04321,181.61023l247.71063,124.94719l-15.49536,26.84946l-232.56172,-151.9966z" fill="url(#color-7)"/><path d="M240.15619,183.43181l191.32055,200.9199l-23.61656,20.08129l-167.96311,-221.30592z" fill="url(#color-8)"/><path d="M241.03159,179.66014l98.15235,259.49658l-29.56598,9.31947l-68.70661,-269.19755z" fill="url(#color-9)"/><path d="M239.88388,181.07919l5.24625,277.38932l-30.97838,-1.15751l25.74707,-276.63154z" fill="url(#color-10)"/><path d="M240.33896,180.75836l-88.26204,263.02504l-28.78842,-11.499l117.19883,-251.89751z" fill="url(#color-11)"/><path d="M238.55223,181.13052l-171.51404,218.07176l-23.2504,-20.50412l195.02901,-197.86764z" fill="url(#color-12)"/><path d="M242.54877,180.99817l-240.27583,138.70791l-13.96459,-27.67653l254.59754,-111.21157z" fill="url(#color-13)"/><path d="M240.96324,180.09428l-272.91412,49.90232l-3.85242,-30.7597l277.16344,-19.19232z" fill="url(#color-14)"/><path d="M241.35324,180.49168l-273.81454,-44.69854l6.70686,-30.26579l267.4982,75.05087z" fill="url(#color-15)"/><path d="M240.69787,178.78832l-242.8725,-134.1093l16.48709,-26.25216l226.72415,160.57421z" fill="url(#color-16)"/><path d="M239.60825,184.4841l-181.87161,-209.51153l24.51566,-18.9732l157.60076,228.80105z" fill="url(#color-17)"/><path d="M240.19411,182.7556l-100.89382,-258.44302l29.46568,-9.63193l71.55242,268.45515z" fill="url(#color-18)"/></g></g></svg>