<svg version="1.1" xmlns="http://www.w3.org/2000/svg" xmlns:xlink="http://www.w3.org/1999/xlink" width="60" height="60" viewBox="0,0,60,60"><defs><radialGradient cx="240" cy="180" r="29" gradientUnits="userSpaceOnUse" id="color-1"><stop offset="0" stop-color="#d0f9ff"/><stop offset="1" stop-color="#87d4ff"/></radialGradient></defs><g transform="translate(-210,-150)"><g data-paper-data="{&quot;isPaintingLayer&quot;:true}" fill-rule="nonzero" stroke="#000000" stroke-linecap="butt" stroke-linejoin="miter" stroke-miterlimit="10" stroke-dasharray="" stroke-dashoffset="0" style="mix-blend-mode: normal"><path d="M211,180c0,-16.01626 12.98374,-29 29,-29c16.01626,0 29,12.98374 29,29c0,16.01626 -12.98374,29 -29,29c-16.01626,0 -29,-12.98374 -29,-29z" fill="url(#color-1)" stroke-width="2"/><path d="M228.88563,177.35511l-5.37815,-11.72182l3.02061,-2.76229l11.41936,6.19723z" data-paper-data="{&quot;index&quot;:null}" fill="#818181" stroke-width="2.5"/><path d="M250.17596,182.44028l5.1544,11.92643l-3.02061,2.76229l-11.19562,-6.40184z" data-paper-data="{&quot;index&quot;:null}" fill="#818181" stroke-width="2.5"/><path d="M237.37139,190.14438l-11.7135,5.39625l-2.76696,-3.01634l6.17958,-11.42893z" data-paper-data="{&quot;index&quot;:null}" fill="#818181" stroke-width="2.5"/><path d="M242.42366,168.84621l11.91845,-5.17282l2.76696,3.01634l-6.38454,11.2055z" fill="#818181" stroke-width="2.5"/><path d="M230.93057,186.12581l-12.27352,-3.96057l0.00632,-4.09321l12.28617,-4.22583z" data-paper-data="{&quot;index&quot;:null}" fill="#818181" stroke-width="2.5"/><path d="M249.0699,173.87419l12.27305,4.26377l-0.00632,4.09321l-12.2857,3.92264z" data-paper-data="{&quot;index&quot;:null}" fill="#818181" stroke-width="2.5"/><path d="M246.09142,188.51792l-3.94161,12.27962h-4.09321l-4.2448,-12.27962z" data-paper-data="{&quot;index&quot;:null}" fill="#818181" stroke-width="2.5"/><path d="M233.81179,170.39755l4.24481,-12.27963h4.09321l3.94161,12.27963z" fill="#818181" stroke-width="2.5"/><path d="M227.69511,180c0,-6.7958 5.50909,-12.30489 12.30489,-12.30489c6.7958,0 12.30489,5.50909 12.30489,12.30489c0,6.7958 -5.50909,12.30489 -12.30489,12.30489c-6.7958,0 -12.30489,-5.50909 -12.30489,-12.30489zM239.91667,186.33384c3.45178,0 6.25,-2.79822 6.25,-6.25c0,-3.45178 -2.79822,-6.25 -6.25,-6.25c-3.45178,0 -6.25,2.79822 -6.25,6.25c0,3.45178 2.79822,6.25 6.25,6.25z" fill="#818181" stroke-width="2.5"/></g></g></svg>