<svg version="1.1" xmlns="http://www.w3.org/2000/svg" xmlns:xlink="http://www.w3.org/1999/xlink" width="55" height="55" viewBox="0,0,55,55"><defs><radialGradient cx="240" cy="180" r="27.5" gradientUnits="userSpaceOnUse" id="color-1"><stop offset="0" stop-color="#9fb2b5"/><stop offset="1" stop-color="#828282"/></radialGradient></defs><g transform="translate(-212.5,-152.5)"><g data-paper-data="{&quot;isPaintingLayer&quot;:true}" fill-rule="nonzero" stroke-linejoin="miter" stroke-miterlimit="10" stroke-dasharray="" stroke-dashoffset="0" style="mix-blend-mode: normal"><path d="M212.5,207.5v-55h55v55z" fill="url(#color-1)" stroke="none" stroke-width="0" stroke-linecap="butt"/><path d="M232.92419,177.68953l-0.14441,-2.59927l0.86642,-5.34297l2.02166,-3.03249l3.1769,-1.15524h3.03249l3.46571,0.86643l1.15524,2.02166l0.72202,2.59928v2.88809v4.47653l-0.14441,7.22022h-2.74368v-6.787l0.14441,-6.06498l-1.01083,-3.0325l-2.16607,-1.29963l-2.16607,0.2888l-1.73286,1.29964l-1.58845,1.87725l-0.28881,2.31047v3.89892v7.65343h-2.31047z" fill="#6f6f6f" stroke="#000000" stroke-width="1.5" stroke-linecap="round"/><path d="M228.08665,200.44317v-19.22569h23.82671v19.22569z" fill="#6f6f6f" stroke="#000000" stroke-width="1.5" stroke-linecap="butt"/><path d="M237.83376,187.55668c0,-1.19638 0.96986,-2.16625 2.16625,-2.16625c1.19638,0 2.16625,0.96986 2.16625,2.16625c0,1.19638 -0.96986,2.16624 -2.16625,2.16624c-1.19638,0 -2.16625,-0.96986 -2.16625,-2.16624z" fill="#000000" stroke="#000000" stroke-width="1.5" stroke-linecap="butt"/><path d="M236.87658,195.36524l2.51889,-6.54912h1.30982l2.41814,6.54912z" fill="#000000" stroke="#000000" stroke-width="1.5" stroke-linecap="butt"/></g></g></svg>